<?xml version="1.0" encoding="UTF-8"?><svg id="Capa_1" xmlns="http://www.w3.org/2000/svg" viewBox="0 0 150.21 145.99"><defs><style>.cls-1{fill:#fff;fill-rule:evenodd;}</style></defs><polygon class="cls-1" points="0 64.79 68.75 64.79 28.41 135.01 19.84 126.96 45.55 82.37 46.2 81.12 46.52 79.93 46.36 78.51 45.93 77.75 45.34 77.15 43.94 76.44 42.18 76.11 0 76.11 0 64.79"/><path class="cls-1" d="M75.24,0c8.88,0,16.11,7.28,16.11,16.2s-7.23,16.19-16.11,16.19-16.09-7.28-16.09-16.19S66.37,0,75.24,0"/><polygon class="cls-1" points="74.86 76.6 36.98 141.01 47.05 145.99 71.86 104.09 72.61 103.13 73.69 102.59 75.08 102.32 76.63 102.59 77.59 103.24 78.29 104.09 103.33 145.99 113.61 140.64 74.86 76.6"/><polygon class="cls-1" points="80.66 64.71 150.21 64.71 150.21 75.83 107.72 75.83 106.37 76.26 105.15 76.86 104.12 77.95 103.69 79.26 103.69 80.44 104.02 81.69 130.28 126.87 122.02 134.69 80.66 64.71"/><path class="cls-1" d="M16.61,52.26v.06c-.06,.26-.09,.47-.09,.6,0,.83,.48,1.45,1.43,1.86,.96,.4,2.43,.61,4.43,.61,1.52,0,2.71-.17,3.57-.5,.85-.33,1.29-.8,1.29-1.38,0-.88-1.71-1.59-5.11-2.16-.4-.06-.7-.11-.89-.14-.23-.04-.54-.1-.96-.16-5.42-.88-8.9-1.84-10.43-2.88-.76-.5-1.32-1.1-1.71-1.79-.37-.68-.56-1.47-.56-2.33,0-2.11,1.24-3.72,3.73-4.83,2.49-1.1,6.12-1.65,10.92-1.65s8.24,.52,10.51,1.55c2.28,1.03,3.42,2.63,3.42,4.78v.25h-8.96v-.1c0-.73-.45-1.29-1.36-1.67-.9-.39-2.23-.58-3.98-.58-1.36,0-2.41,.14-3.15,.41-.73,.28-1.1,.66-1.1,1.17,0,.88,1.96,1.65,5.87,2.28,.75,.12,1.34,.21,1.77,.27,2.79,.47,4.77,.87,5.95,1.2,1.18,.35,2.19,.73,3.05,1.19,.95,.52,1.7,1.18,2.21,1.98,.52,.8,.78,1.67,.78,2.62,0,2.17-1.36,3.85-4.06,5.03-2.72,1.17-6.62,1.77-11.7,1.77s-8.67-.57-10.91-1.7c-2.25-1.12-3.38-2.94-3.38-5.43v-.32h9.43Zm24.56,7.09v-21.47h25.56v4.63h-15.96v3.42h14.75v4.57h-14.75v4.16h16.55v4.69h-26.15Zm30.16,0v-21.47h12.15l12.99,14.41v-14.41h9.21v21.47h-12.59l-12.57-14.45v14.45h-9.2Zm59.15-8.56l-4.59-7.8-4.86,7.8h9.45Zm-14.61,8.56h-9.62l14.85-21.47h10.64l14.17,21.47h-10.69l-2.15-3.88h-14.89l-2.32,3.88Z"/></svg>